<?xml version="1.0" encoding="utf-8"?>
<!-- Generator: Adobe Illustrator 21.1.0, SVG Export Plug-In . SVG Version: 6.00 Build 0)  -->
<svg version="1.1" id="Layer_1" xmlns="http://www.w3.org/2000/svg" xmlns:xlink="http://www.w3.org/1999/xlink" x="0px" y="0px"
	 viewBox="0 0 30 30" style="enable-background:new 0 0 30 30;" xml:space="preserve">
<text transform="matrix(1 0 0 1 308.0164 397.9686)" style="font-family:'MyriadPro-Regular'; font-size:12px;">        width: 100%;</text>
<title>clock</title>
<path d="M15,2C7.8,2,2,7.8,2,15s5.8,13,13,13s13-5.8,13-13S22.2,2,15,2z M15,27C8.4,27,3,21.6,3,15S8.4,3,15,3s12,5.4,12,12
	S21.6,27,15,27z"/>
<polygon points="15,15 8,15 8,16 16,16 16,6 15,6 "/>
</svg>
