<?xml version="1.0" encoding="utf-8"?>
<!-- Generator: Adobe Illustrator 21.1.0, SVG Export Plug-In . SVG Version: 6.00 Build 0)  -->
<svg version="1.1" id="Layer_1" xmlns="http://www.w3.org/2000/svg" xmlns:xlink="http://www.w3.org/1999/xlink" x="0px" y="0px"
	 viewBox="0 0 52 52" style="enable-background:new 0 0 52 52;" xml:space="preserve">
<title>envelope</title>
<path d="M51,11H1c-0.6,0-1,0.4-1,1v28c0,0.6,0.4,1,1,1h50c0.6,0,1-0.4,1-1V12C52,11.4,51.6,11,51,11z M50,39H2V13h48V39z"/>
<path d="M41,27h6c0.6,0,1-0.4,1-1v-8c0-0.6-0.4-1-1-1h-6c-0.6,0-1,0.4-1,1v8C40,26.5,40.4,27,41,27z M42,19h4v6h-4V19z"/>
<path d="M33,20.7c0.2,0,0.3,0,0.5,0.2c0.9,0.6,2.2,0.6,3.1,0c0.1-0.1,0.3-0.2,0.5-0.2c0.6,0,1-0.4,1-1c0-0.6-0.4-1-1-1
	c-0.6,0-1.1,0.2-1.5,0.5c-0.3,0.2-0.7,0.2-0.9,0c-0.4-0.3-1-0.5-1.5-0.5c-0.6,0-1,0.4-1,1S32.4,20.7,33,20.7z"/>
<path d="M33,24.7c0.2,0,0.3,0,0.5,0.2c0.9,0.6,2.2,0.6,3.1,0c0.1-0.1,0.3-0.2,0.5-0.2c0.6,0,1-0.4,1-1c0-0.6-0.4-1-1-1
	c-0.6,0-1.1,0.2-1.5,0.5c-0.3,0.2-0.7,0.2-0.9,0c-0.4-0.3-1-0.5-1.5-0.5c-0.6,0-1,0.4-1,1C32,24.2,32.4,24.7,33,24.7z"/>
<path d="M7,27h12c0.6,0,1-0.4,1-1c0-0.6-0.4-1-1-1H7c-0.6,0-1,0.4-1,1C6,26.5,6.4,27,7,27z"/>
<path d="M7,31h16c0.6,0,1-0.4,1-1s-0.4-1-1-1H7c-0.6,0-1,0.4-1,1S6.4,31,7,31z"/>
<path d="M7,35h8c0.6,0,1-0.4,1-1s-0.4-1-1-1H7c-0.6,0-1,0.4-1,1S6.4,35,7,35z"/>
</svg>
